<svg width="23" height="20" viewBox="0 0 23 20" fill="none" xmlns="http://www.w3.org/2000/svg">
<path d="M5.875 11.625C6.76502 11.625 7.63504 11.3611 8.37507 10.8666C9.11509 10.3721 9.69186 9.66935 10.0325 8.84708C10.3731 8.02481 10.4622 7.12001 10.2885 6.2471C10.1149 5.37418 9.68632 4.57236 9.05698 3.94302C8.42764 3.31368 7.62582 2.8851 6.75291 2.71147C5.87999 2.53783 4.97519 2.62695 4.15292 2.96754C3.33066 3.30814 2.62785 3.88491 2.13339 4.62494C1.63892 5.36496 1.375 6.23499 1.375 7.125C1.375 8.31848 1.84911 9.46307 2.69302 10.307C3.53693 11.1509 4.68153 11.625 5.875 11.625ZM5.875 4.875C6.32001 4.875 6.75502 5.00696 7.12503 5.2542C7.49504 5.50143 7.78343 5.85283 7.95373 6.26396C8.12403 6.6751 8.16858 7.1275 8.08177 7.56396C7.99495 8.00041 7.78066 8.40132 7.46599 8.71599C7.15132 9.03066 6.75041 9.24495 6.31395 9.33177C5.8775 9.41859 5.4251 9.37403 5.01396 9.20373C4.60283 9.03343 4.25143 8.74505 4.00419 8.37504C3.75696 8.00502 3.625 7.57001 3.625 7.125C3.625 6.52826 3.86205 5.95597 4.28401 5.53401C4.70597 5.11205 5.27826 4.875 5.875 4.875ZM11.5 16.125V18.375C11.5 18.6734 11.3815 18.9595 11.1705 19.1705C10.9595 19.3815 10.6734 19.5 10.375 19.5C10.0766 19.5 9.79048 19.3815 9.5795 19.1705C9.36853 18.9595 9.25 18.6734 9.25 18.375V16.125C9.25 15.8266 9.13147 15.5405 8.9205 15.3295C8.70952 15.1185 8.42337 15 8.125 15H3.625C3.32663 15 3.04048 15.1185 2.8295 15.3295C2.61853 15.5405 2.5 15.8266 2.5 16.125V18.375C2.5 18.6734 2.38147 18.9595 2.1705 19.1705C1.95952 19.3815 1.67337 19.5 1.375 19.5C1.07663 19.5 0.790483 19.3815 0.579505 19.1705C0.368526 18.9595 0.25 18.6734 0.25 18.375V16.125C0.25 15.2299 0.605579 14.3715 1.23851 13.7385C1.87145 13.1056 2.72989 12.75 3.625 12.75H8.125C9.02011 12.75 9.87855 13.1056 10.5115 13.7385C11.1444 14.3715 11.5 15.2299 11.5 16.125ZM17.125 9.375C18.015 9.375 18.885 9.11108 19.6251 8.61662C20.3651 8.12215 20.9419 7.41935 21.2825 6.59708C21.6231 5.77481 21.7122 4.87001 21.5385 3.9971C21.3649 3.12418 20.9363 2.32236 20.307 1.69302C19.6776 1.06368 18.8758 0.635102 18.0029 0.461468C17.13 0.287835 16.2252 0.37695 15.4029 0.717544C14.5807 1.05814 13.8779 1.63491 13.3834 2.37494C12.8889 3.11496 12.625 3.98499 12.625 4.875C12.625 6.06848 13.0991 7.21307 13.943 8.05698C14.7869 8.9009 15.9315 9.375 17.125 9.375ZM17.125 2.625C17.57 2.625 18.005 2.75696 18.375 3.0042C18.745 3.25143 19.0334 3.60283 19.2037 4.01396C19.374 4.4251 19.4186 4.8775 19.3318 5.31396C19.245 5.75041 19.0307 6.15132 18.716 6.46599C18.4013 6.78066 18.0004 6.99495 17.564 7.08177C17.1275 7.16859 16.6751 7.12403 16.264 6.95373C15.8528 6.78343 15.5014 6.49505 15.2542 6.12503C15.007 5.75502 14.875 5.32001 14.875 4.875C14.875 4.27826 15.1121 3.70597 15.534 3.28401C15.956 2.86205 16.5283 2.625 17.125 2.625ZM22.75 13.875V16.125C22.75 16.4234 22.6315 16.7095 22.4205 16.9205C22.2095 17.1315 21.9234 17.25 21.625 17.25C21.3266 17.25 21.0405 17.1315 20.8295 16.9205C20.6185 16.7095 20.5 16.4234 20.5 16.125V13.875C20.5 13.5766 20.3815 13.2905 20.1705 13.0795C19.9595 12.8685 19.6734 12.75 19.375 12.75H14.875C14.6817 12.7506 14.4919 12.801 14.3238 12.8963C14.132 13.0028 13.9756 13.1632 13.8737 13.3575C13.8071 13.4918 13.7143 13.6115 13.6008 13.7095C13.4873 13.8075 13.3553 13.8817 13.2126 13.928C13.07 13.9742 12.9195 13.9914 12.7701 13.9787C12.6207 13.9659 12.4753 13.9234 12.3426 13.8536C12.2098 13.7839 12.0924 13.6883 11.9971 13.5725C11.9018 13.4567 11.8307 13.323 11.7878 13.1793C11.7449 13.0356 11.7312 12.8848 11.7475 12.7357C11.7638 12.5866 11.8097 12.4423 11.8825 12.3113C12.1881 11.7321 12.6525 11.252 13.2212 10.9275C13.7267 10.6456 14.2962 10.4983 14.875 10.5H19.375C20.2701 10.5 21.1286 10.8556 21.7615 11.4885C22.3944 12.1215 22.75 12.9799 22.75 13.875Z" fill="#5BBDF4"/>
</svg>
