<svg width="23" height="23" viewBox="0 0 23 23" fill="none" xmlns="http://www.w3.org/2000/svg">
<path d="M4.46875 12.625C4.46875 12.3469 4.55123 12.075 4.70575 11.8437C4.86027 11.6125 5.07989 11.4322 5.33685 11.3258C5.59381 11.2194 5.87656 11.1915 6.14935 11.2458C6.42213 11.3 6.6727 11.434 6.86937 11.6306C7.06604 11.8273 7.19997 12.0779 7.25423 12.3507C7.30849 12.6234 7.28064 12.9062 7.17421 13.1631C7.06777 13.4201 6.88753 13.6397 6.65627 13.7943C6.42501 13.9488 6.15313 14.0312 5.875 14.0312C5.50204 14.0312 5.14435 13.8831 4.88063 13.6194C4.61691 13.3556 4.46875 12.998 4.46875 12.625ZM5.875 18.5312C6.15313 18.5312 6.42501 18.4488 6.65627 18.2943C6.88753 18.1397 7.06777 17.9201 7.17421 17.6631C7.28064 17.4062 7.30849 17.1234 7.25423 16.8507C7.19997 16.5779 7.06604 16.3273 6.86937 16.1306C6.6727 15.934 6.42213 15.8 6.14935 15.7458C5.87656 15.6915 5.59381 15.7194 5.33685 15.8258C5.07989 15.9322 4.86027 16.1125 4.70575 16.3437C4.55123 16.575 4.46875 16.8469 4.46875 17.125C4.46875 17.498 4.61691 17.8556 4.88063 18.1194C5.14435 18.3831 5.50204 18.5312 5.875 18.5312ZM11.5 14.0312C11.7781 14.0312 12.05 13.9488 12.2813 13.7943C12.5125 13.6397 12.6928 13.4201 12.7992 13.1631C12.9056 12.9062 12.9335 12.6234 12.8792 12.3507C12.825 12.0779 12.691 11.8273 12.4944 11.6306C12.2977 11.434 12.0471 11.3 11.7743 11.2458C11.5016 11.1915 11.2188 11.2194 10.9619 11.3258C10.7049 11.4322 10.4853 11.6125 10.3307 11.8437C10.1762 12.075 10.0938 12.3469 10.0938 12.625C10.0938 12.998 10.2419 13.3556 10.5056 13.6194C10.7694 13.8831 11.127 14.0312 11.5 14.0312ZM11.5 18.5312C11.7781 18.5312 12.05 18.4488 12.2813 18.2943C12.5125 18.1397 12.6928 17.9201 12.7992 17.6631C12.9056 17.4062 12.9335 17.1234 12.8792 16.8507C12.825 16.5779 12.691 16.3273 12.4944 16.1306C12.2977 15.934 12.0471 15.8 11.7743 15.7458C11.5016 15.6915 11.2188 15.7194 10.9619 15.8258C10.7049 15.9322 10.4853 16.1125 10.3307 16.3437C10.1762 16.575 10.0938 16.8469 10.0938 17.125C10.0938 17.498 10.2419 17.8556 10.5056 18.1194C10.7694 18.3831 11.127 18.5312 11.5 18.5312ZM17.125 14.0312C17.4031 14.0312 17.675 13.9488 17.9063 13.7943C18.1375 13.6397 18.3178 13.4201 18.4242 13.1631C18.5306 12.9062 18.5585 12.6234 18.5042 12.3507C18.45 12.0779 18.316 11.8273 18.1194 11.6306C17.9227 11.434 17.6721 11.3 17.3993 11.2458C17.1266 11.1915 16.8438 11.2194 16.5869 11.3258C16.3299 11.4322 16.1103 11.6125 15.9557 11.8437C15.8012 12.075 15.7188 12.3469 15.7188 12.625C15.7188 12.998 15.8669 13.3556 16.1306 13.6194C16.3944 13.8831 16.752 14.0312 17.125 14.0312ZM22.75 5.875V19.375C22.75 20.2701 22.3944 21.1286 21.7615 21.7615C21.1286 22.3944 20.2701 22.75 19.375 22.75H3.625C2.72989 22.75 1.87145 22.3944 1.23851 21.7615C0.605579 21.1286 0.25 20.2701 0.25 19.375V5.875C0.25 4.97989 0.605579 4.12145 1.23851 3.48851C1.87145 2.85558 2.72989 2.5 3.625 2.5H4.75V1.375C4.75 1.07663 4.86853 0.790483 5.0795 0.579505C5.29048 0.368526 5.57663 0.25 5.875 0.25C6.17337 0.25 6.45952 0.368526 6.6705 0.579505C6.88147 0.790483 7 1.07663 7 1.375V2.5H16V1.375C16 1.07663 16.1185 0.790483 16.3295 0.579505C16.5405 0.368526 16.8266 0.25 17.125 0.25C17.4234 0.25 17.7095 0.368526 17.9205 0.579505C18.1315 0.790483 18.25 1.07663 18.25 1.375V2.5H19.375C20.2701 2.5 21.1286 2.85558 21.7615 3.48851C22.3944 4.12145 22.75 4.97989 22.75 5.875ZM2.5 5.875V7H20.5V5.875C20.5 5.57663 20.3815 5.29048 20.1705 5.0795C19.9595 4.86853 19.6734 4.75 19.375 4.75H3.625C3.32663 4.75 3.04048 4.86853 2.8295 5.0795C2.61853 5.29048 2.5 5.57663 2.5 5.875ZM20.5 9.25H2.5V19.375C2.5 19.6734 2.61853 19.9595 2.8295 20.1705C3.04048 20.3815 3.32663 20.5 3.625 20.5H19.375C19.6734 20.5 19.9595 20.3815 20.1705 20.1705C20.3815 19.9595 20.5 19.6734 20.5 19.375V9.25Z" fill="#5BBDF4"/>
</svg>
