<svg width="29" height="29" viewBox="0 0 29 29" fill="none" xmlns="http://www.w3.org/2000/svg">
<path d="M26.15 23.025C26.1411 21.8497 25.6727 20.7245 24.845 19.89L24.5 19.5C23.2067 18.2069 21.4538 17.4788 19.625 17.475C18.5831 17.4829 17.5569 17.7292 16.625 18.195L15.35 18.825C14.2647 18.2994 13.2758 17.5945 12.425 16.74C11.5722 15.8627 10.8725 14.8486 10.355 13.74L10.985 12.465C11.4586 11.5353 11.7101 10.5084 11.72 9.46501C11.7044 8.55204 11.5081 7.65119 11.1426 6.81447C10.777 5.97775 10.2493 5.22172 9.58998 4.59001L9.16998 4.18501C8.32688 3.34085 7.18305 2.86606 5.98998 2.86501H4.72998C3.53651 2.86501 2.39191 3.33911 1.548 4.18303C0.704086 5.02694 0.22998 6.17153 0.22998 7.36501V7.50001C0.277323 9.96065 0.660875 12.4033 1.36998 14.76C2.29212 17.8125 3.93895 20.5967 6.16998 22.875V22.875C8.44022 25.1123 11.2199 26.7646 14.27 27.69C16.6248 28.4094 19.0682 28.7981 21.53 28.845H21.635C22.8285 28.845 23.973 28.3709 24.817 27.527C25.6609 26.6831 26.135 25.5385 26.135 24.345V23.085L26.15 23.025ZM21.65 25.815C19.4725 25.7801 17.311 25.4367 15.23 24.795C12.6415 24.0133 10.2798 22.6189 8.34498 20.73V20.73C6.46013 18.7947 5.07072 16.4327 4.29498 13.845C3.6645 11.7567 3.32629 9.59112 3.28998 7.41001V7.41001C3.28998 7.01218 3.44802 6.63065 3.72932 6.34935C4.01062 6.06804 4.39216 5.91001 4.78998 5.91001H6.04998C6.24739 5.90887 6.44308 5.9467 6.62584 6.02135C6.8086 6.096 6.97482 6.20598 7.11498 6.34501L7.51998 6.75001C8.21729 7.47539 8.60466 8.44383 8.59998 9.45001C8.60007 10.0503 8.45604 10.6419 8.17998 11.175L7.23498 13.08C7.14584 13.2754 7.09971 13.4877 7.09971 13.7025C7.09971 13.9173 7.14584 14.1296 7.23498 14.325C7.92803 16.0084 8.94765 17.5378 10.235 18.825V18.825C11.5217 20.113 13.0512 21.1327 14.735 21.825C14.9304 21.9141 15.1427 21.9603 15.3575 21.9603C15.5723 21.9603 15.7846 21.9141 15.98 21.825L17.885 20.865C18.6157 20.493 19.446 20.3637 20.2553 20.4959C21.0646 20.6281 21.8106 21.0148 22.385 21.6L22.79 22.02C23.0671 22.2994 23.2233 22.6765 23.225 23.07V24.315C23.2253 24.5198 23.1838 24.7225 23.1028 24.9106C23.0219 25.0987 22.9033 25.2683 22.7543 25.4088C22.6053 25.5493 22.4292 25.6579 22.2367 25.7277C22.0442 25.7976 21.8394 25.8273 21.635 25.815H21.65ZM14.66 8.10001C14.6043 7.70617 14.7074 7.30636 14.9465 6.9885C15.1856 6.67064 15.5412 6.46076 15.935 6.40501C16.1846 6.38551 16.4354 6.38551 16.685 6.40501C17.331 6.41413 17.9724 6.51515 18.59 6.70501C19.4724 6.98666 20.2746 7.4754 20.9296 8.13038C21.5846 8.78537 22.0733 9.58758 22.355 10.47C22.5485 11.0863 22.6446 11.729 22.64 12.375C22.6647 12.6244 22.6647 12.8756 22.64 13.125C22.5863 13.5228 22.3767 13.883 22.0575 14.1264C21.7382 14.3697 21.3353 14.4762 20.9375 14.4225C20.5397 14.3688 20.1795 14.1593 19.9361 13.84C19.6928 13.5207 19.5863 13.1178 19.64 12.72C19.64 12.72 19.64 12.57 19.64 12.375C19.6475 12.0339 19.5968 11.694 19.49 11.37C19.3611 10.9451 19.1294 10.5585 18.8154 10.2446C18.5014 9.93059 18.1149 9.6989 17.69 9.57001C17.3646 9.46706 17.0262 9.41149 16.685 9.40501C16.5752 9.39531 16.4648 9.39531 16.355 9.40501C16.1577 9.43234 15.9571 9.42014 15.7646 9.3691C15.5721 9.31807 15.3917 9.22923 15.234 9.10776C15.0762 8.98628 14.9442 8.83462 14.8456 8.6616C14.7471 8.48858 14.684 8.29767 14.66 8.10001ZM28.415 10.92V11.13C28.415 11.5278 28.2569 11.9094 27.9756 12.1907C27.6943 12.472 27.3128 12.63 26.915 12.63C26.5172 12.63 26.1356 12.472 25.8543 12.1907C25.573 11.9094 25.415 11.5278 25.415 11.13V10.98C25.4097 10.2588 25.3037 9.54186 25.1 8.85001C24.7734 7.67701 24.1529 6.60676 23.2972 5.74056C22.4415 4.87435 21.3789 4.24084 20.21 3.90001C19.5181 3.69628 18.8012 3.59025 18.08 3.58501H17.945C17.748 3.58993 17.552 3.55601 17.3681 3.48518C17.1842 3.41434 17.0161 3.30799 16.8733 3.17218C16.7306 3.03638 16.6159 2.87378 16.536 2.69368C16.4561 2.51357 16.4124 2.31949 16.4075 2.12251C16.4026 1.92552 16.4365 1.7295 16.5073 1.54563C16.5781 1.36175 16.6845 1.19363 16.8203 1.05086C16.9561 0.908093 17.1187 0.79347 17.2988 0.713538C17.4789 0.633606 17.673 0.589931 17.87 0.585007H18.08C19.0965 0.588999 20.107 0.740581 21.08 1.03501C22.7176 1.51197 24.2085 2.39433 25.4146 3.60043C26.6207 4.80652 27.503 6.29738 27.98 7.93501C28.27 8.90342 28.4165 9.9091 28.415 10.92V10.92Z" fill="#5BBDF4"/>
</svg>
