<svg width="30" height="30" viewBox="0 0 30 30" fill="none" xmlns="http://www.w3.org/2000/svg">
<path d="M25.5 6H22.5V4.5C22.5 3.30653 22.0259 2.16193 21.182 1.31802C20.3381 0.474106 19.1935 0 18 0H12C10.8065 0 9.66193 0.474106 8.81802 1.31802C7.97411 2.16193 7.5 3.30653 7.5 4.5V6H4.5C3.30653 6 2.16193 6.47411 1.31802 7.31802C0.474106 8.16193 0 9.30653 0 10.5V25.5C0 26.6935 0.474106 27.8381 1.31802 28.682C2.16193 29.5259 3.30653 30 4.5 30H25.5C26.6935 30 27.8381 29.5259 28.682 28.682C29.5259 27.8381 30 26.6935 30 25.5V10.5C30 9.30653 29.5259 8.16193 28.682 7.31802C27.8381 6.47411 26.6935 6 25.5 6ZM10.5 4.5C10.5 4.10217 10.658 3.72064 10.9393 3.43934C11.2206 3.15804 11.6022 3 12 3H18C18.3978 3 18.7794 3.15804 19.0607 3.43934C19.342 3.72064 19.5 4.10217 19.5 4.5V6H10.5V4.5ZM27 25.5C27 25.8978 26.842 26.2794 26.5607 26.5607C26.2794 26.842 25.8978 27 25.5 27H4.5C4.10217 27 3.72064 26.842 3.43934 26.5607C3.15804 26.2794 3 25.8978 3 25.5V10.5C3 10.1022 3.15804 9.72064 3.43934 9.43934C3.72064 9.15803 4.10217 9 4.5 9H25.5C25.8978 9 26.2794 9.15803 26.5607 9.43934C26.842 9.72064 27 10.1022 27 10.5V25.5ZM24 22.5C24 22.8978 23.842 23.2794 23.5607 23.5607C23.2794 23.842 22.8978 24 22.5 24H7.5C7.10217 24 6.72064 23.842 6.43934 23.5607C6.15804 23.2794 6 22.8978 6 22.5C6 22.1022 6.15804 21.7206 6.43934 21.4393C6.72064 21.158 7.10217 21 7.5 21H22.5C22.8978 21 23.2794 21.158 23.5607 21.4393C23.842 21.7206 24 22.1022 24 22.5Z" fill="#5BBDF4"/>
</svg>
