<svg width="69" height="53" viewBox="0 0 69 53" fill="none" xmlns="http://www.w3.org/2000/svg">
<path d="M53.3897 22.9602C57.8653 22.3314 61.3111 18.4942 61.3207 13.8454C61.3207 9.26387 57.9808 5.4652 53.6014 4.74654" stroke="#505050" stroke-width="3" stroke-linecap="round" stroke-linejoin="round"/>
<path d="M59.2956 33.7197C63.6301 34.3678 66.6555 35.8854 66.6555 39.0135C66.6555 41.1663 65.231 42.5651 62.9274 43.4442" stroke="#505050" stroke-width="3" stroke-linecap="round" stroke-linejoin="round"/>
<path fill-rule="evenodd" clip-rule="evenodd" d="M34.1365 35.0464C23.8249 35.0464 15.018 36.6088 15.018 42.849C15.018 49.086 23.7704 50.6934 34.1365 50.6934C44.4481 50.6934 53.2517 49.147 53.2517 42.9036C53.2517 36.6601 44.5026 35.0464 34.1365 35.0464Z" stroke="#505050" stroke-width="3" stroke-linecap="round" stroke-linejoin="round"/>
<path fill-rule="evenodd" clip-rule="evenodd" d="M34.1365 26.1404C40.9029 26.1404 46.3891 20.6573 46.3891 13.8877C46.3891 7.12135 40.9029 1.6351 34.1365 1.6351C27.3701 1.6351 21.8839 7.12135 21.8839 13.8877C21.8582 20.6316 27.3027 26.1179 34.0467 26.1404H34.1365Z" stroke="#505050" stroke-width="3" stroke-linecap="round" stroke-linejoin="round"/>
<path d="M14.8804 22.9602C10.4016 22.3314 6.95903 18.4942 6.9494 13.8454C6.9494 9.26387 10.2893 5.4652 14.6687 4.74654" stroke="#505050" stroke-width="3" stroke-linecap="round" stroke-linejoin="round"/>
<path d="M8.97417 33.7197C4.63972 34.3678 1.61426 35.8854 1.61426 39.0135C1.61426 41.1663 3.03876 42.5651 5.34234 43.4442" stroke="#505050" stroke-width="3" stroke-linecap="round" stroke-linejoin="round"/>
</svg>
