<svg width="36" height="36" viewBox="0 0 36 36" fill="none" xmlns="http://www.w3.org/2000/svg">
<path d="M28.5 9H25.5V7.5C25.5 6.30653 25.0259 5.16193 24.182 4.31802C23.3381 3.47411 22.1935 3 21 3H15C13.8065 3 12.6619 3.47411 11.818 4.31802C10.9741 5.16193 10.5 6.30653 10.5 7.5V9H7.5C6.30653 9 5.16193 9.47411 4.31802 10.318C3.47411 11.1619 3 12.3065 3 13.5V28.5C3 29.6935 3.47411 30.8381 4.31802 31.682C5.16193 32.5259 6.30653 33 7.5 33H28.5C29.6935 33 30.8381 32.5259 31.682 31.682C32.5259 30.8381 33 29.6935 33 28.5V13.5C33 12.3065 32.5259 11.1619 31.682 10.318C30.8381 9.47411 29.6935 9 28.5 9ZM13.5 7.5C13.5 7.10217 13.658 6.72064 13.9393 6.43934C14.2206 6.15804 14.6022 6 15 6H21C21.3978 6 21.7794 6.15804 22.0607 6.43934C22.342 6.72064 22.5 7.10217 22.5 7.5V9H13.5V7.5ZM30 28.5C30 28.8978 29.842 29.2794 29.5607 29.5607C29.2794 29.842 28.8978 30 28.5 30H7.5C7.10217 30 6.72064 29.842 6.43934 29.5607C6.15804 29.2794 6 28.8978 6 28.5V13.5C6 13.1022 6.15804 12.7206 6.43934 12.4393C6.72064 12.158 7.10217 12 7.5 12H28.5C28.8978 12 29.2794 12.158 29.5607 12.4393C29.842 12.7206 30 13.1022 30 13.5V28.5ZM27 25.5C27 25.8978 26.842 26.2794 26.5607 26.5607C26.2794 26.842 25.8978 27 25.5 27H10.5C10.1022 27 9.72064 26.842 9.43934 26.5607C9.15804 26.2794 9 25.8978 9 25.5C9 25.1022 9.15804 24.7206 9.43934 24.4393C9.72064 24.158 10.1022 24 10.5 24H25.5C25.8978 24 26.2794 24.158 26.5607 24.4393C26.842 24.7206 27 25.1022 27 25.5Z" fill="#5BBDF4"/>
</svg>
