<svg width="30" height="30" viewBox="0 0 30 30" fill="none" xmlns="http://www.w3.org/2000/svg">
<path d="M8.66667 0.75H5.5C4.24022 0.75 3.03204 1.25045 2.14124 2.14124C1.25045 3.03204 0.75 4.24022 0.75 5.5V8.66667C0.75 9.92645 1.25045 11.1346 2.14124 12.0254C3.03204 12.9162 4.24022 13.4167 5.5 13.4167H8.66667C9.92645 13.4167 11.1346 12.9162 12.0254 12.0254C12.9162 11.1346 13.4167 9.92645 13.4167 8.66667V5.5C13.4167 4.24022 12.9162 3.03204 12.0254 2.14124C11.1346 1.25045 9.92645 0.75 8.66667 0.75ZM10.25 8.66667C10.25 9.08659 10.0832 9.48932 9.78625 9.78625C9.48932 10.0832 9.08659 10.25 8.66667 10.25H5.5C5.08007 10.25 4.67735 10.0832 4.38041 9.78625C4.08348 9.48932 3.91667 9.08659 3.91667 8.66667V5.5C3.91667 5.08007 4.08348 4.67735 4.38041 4.38041C4.67735 4.08348 5.08007 3.91667 5.5 3.91667H8.66667C9.08659 3.91667 9.48932 4.08348 9.78625 4.38041C10.0832 4.67735 10.25 5.08007 10.25 5.5V8.66667ZM8.66667 16.5833H5.5C4.24022 16.5833 3.03204 17.0838 2.14124 17.9746C1.25045 18.8654 0.75 20.0736 0.75 21.3333V24.5C0.75 25.7598 1.25045 26.968 2.14124 27.8588C3.03204 28.7496 4.24022 29.25 5.5 29.25H8.66667C9.92645 29.25 11.1346 28.7496 12.0254 27.8588C12.9162 26.968 13.4167 25.7598 13.4167 24.5V21.3333C13.4167 20.0736 12.9162 18.8654 12.0254 17.9746C11.1346 17.0838 9.92645 16.5833 8.66667 16.5833ZM10.25 24.5C10.25 24.9199 10.0832 25.3227 9.78625 25.6196C9.48932 25.9165 9.08659 26.0833 8.66667 26.0833H5.5C5.08007 26.0833 4.67735 25.9165 4.38041 25.6196C4.08348 25.3227 3.91667 24.9199 3.91667 24.5V21.3333C3.91667 20.9134 4.08348 20.5107 4.38041 20.2137C4.67735 19.9168 5.08007 19.75 5.5 19.75H8.66667C9.08659 19.75 9.48932 19.9168 9.78625 20.2137C10.0832 20.5107 10.25 20.9134 10.25 21.3333V24.5ZM24.5 16.5833H21.3333C20.0736 16.5833 18.8654 17.0838 17.9746 17.9746C17.0838 18.8654 16.5833 20.0736 16.5833 21.3333V24.5C16.5833 25.7598 17.0838 26.968 17.9746 27.8588C18.8654 28.7496 20.0736 29.25 21.3333 29.25H24.5C25.7598 29.25 26.968 28.7496 27.8588 27.8588C28.7496 26.968 29.25 25.7598 29.25 24.5V21.3333C29.25 20.0736 28.7496 18.8654 27.8588 17.9746C26.968 17.0838 25.7598 16.5833 24.5 16.5833ZM26.0833 24.5C26.0833 24.9199 25.9165 25.3227 25.6196 25.6196C25.3227 25.9165 24.9199 26.0833 24.5 26.0833H21.3333C20.9134 26.0833 20.5107 25.9165 20.2137 25.6196C19.9168 25.3227 19.75 24.9199 19.75 24.5V21.3333C19.75 20.9134 19.9168 20.5107 20.2137 20.2137C20.5107 19.9168 20.9134 19.75 21.3333 19.75H24.5C24.9199 19.75 25.3227 19.9168 25.6196 20.2137C25.9165 20.5107 26.0833 20.9134 26.0833 21.3333V24.5ZM16.5833 3.91667C16.5833 3.49674 16.7501 3.09401 17.0471 2.79708C17.344 2.50015 17.7467 2.33333 18.1667 2.33333H27.6667C28.0866 2.33333 28.4893 2.50015 28.7863 2.79708C29.0832 3.09401 29.25 3.49674 29.25 3.91667C29.25 4.33659 29.0832 4.73932 28.7863 5.03625C28.4893 5.33318 28.0866 5.5 27.6667 5.5H18.1667C17.7467 5.5 17.344 5.33318 17.0471 5.03625C16.7501 4.73932 16.5833 4.33659 16.5833 3.91667ZM29.25 10.25C29.25 10.6699 29.0832 11.0727 28.7863 11.3696C28.4893 11.6665 28.0866 11.8333 27.6667 11.8333H18.1667C17.7467 11.8333 17.344 11.6665 17.0471 11.3696C16.7501 11.0727 16.5833 10.6699 16.5833 10.25C16.5833 9.83007 16.7501 9.42735 17.0471 9.13041C17.344 8.83348 17.7467 8.66667 18.1667 8.66667H27.6667C28.0866 8.66667 28.4893 8.83348 28.7863 9.13041C29.0832 9.42735 29.25 9.83007 29.25 10.25Z" fill="#5BBDF4"/>
</svg>
