<svg width="27" height="27" viewBox="0 0 27 27" fill="none" xmlns="http://www.w3.org/2000/svg">
<path d="M16.875 6.4575C16.8556 6.38392 16.8292 6.31235 16.7963 6.24375C16.7963 6.24375 16.7963 6.24375 16.7963 6.17625C16.7963 6.10875 16.7288 6.10875 16.7063 6.075C16.6627 6.011 16.6096 5.95408 16.5488 5.90625L16.38 5.7825C16.3156 5.74591 16.2478 5.71576 16.1775 5.6925H15.9525L15.75 5.625H15.6713H15.4575L15.2438 5.70375H15.1762L9.81 9H7.875C6.97989 9 6.12145 9.35558 5.48851 9.98851C4.85558 10.6214 4.5 11.4799 4.5 12.375V14.625C4.5 15.5201 4.85558 16.3786 5.48851 17.0115C6.12145 17.6444 6.97989 18 7.875 18H9.81L15.1762 21.2175H15.2438L15.4575 21.2963H15.6713H15.75H15.8737H16.0988C16.169 21.273 16.2369 21.2428 16.3012 21.2063L16.47 21.0825C16.5309 21.0347 16.584 20.9778 16.6275 20.9138C16.6275 20.9138 16.695 20.8575 16.7175 20.8125C16.74 20.7675 16.7175 20.8125 16.7175 20.745C16.7504 20.6764 16.7768 20.6048 16.7963 20.5312C16.8015 20.4601 16.8015 20.3887 16.7963 20.3175C16.7963 20.3175 16.875 20.25 16.875 20.25V6.75C16.875 6.75 16.875 6.75 16.875 6.67125C16.8803 6.6001 16.8803 6.52865 16.875 6.4575V6.4575ZM6.75 14.625V12.375C6.75 12.0766 6.86853 11.7905 7.07951 11.5795C7.29048 11.3685 7.57663 11.25 7.875 11.25H10.2037H10.4175L10.6312 11.1713H10.6988L14.625 8.74125V18.2587L10.6988 15.9075H10.6312L10.4175 15.8287H10.2037H7.875C7.7204 15.8291 7.56737 15.7976 7.42548 15.7362C7.28359 15.6748 7.15588 15.5849 7.05031 15.4719C6.94475 15.359 6.8636 15.2255 6.81193 15.0797C6.76026 14.934 6.73918 14.7792 6.75 14.625V14.625Z" fill="#5BBDF4"/>
<path d="M21.2063 9.29247C21.1352 9.15168 21.0352 9.02743 20.9128 8.9278C20.7905 8.82817 20.6486 8.75539 20.4963 8.71417C20.344 8.67296 20.1847 8.66424 20.0288 8.68858C19.873 8.71291 19.7239 8.76977 19.5915 8.85544C19.459 8.94112 19.346 9.0537 19.2599 9.18588C19.1737 9.31806 19.1164 9.46687 19.0915 9.62267C19.0666 9.77846 19.0748 9.93775 19.1154 10.0902C19.1561 10.2426 19.2284 10.3848 19.3276 10.5075C19.9122 11.3975 20.2321 12.4353 20.2501 13.5C20.2354 14.5636 19.9194 15.6012 19.3388 16.4925C19.2396 16.6152 19.1674 16.7573 19.1267 16.9098C19.086 17.0622 19.0778 17.2215 19.1027 17.3773C19.1276 17.5331 19.185 17.6819 19.2711 17.8141C19.3573 17.9462 19.4702 18.0588 19.6027 18.1445C19.7352 18.2302 19.8842 18.287 20.0401 18.3114C20.196 18.3357 20.3552 18.327 20.5075 18.2858C20.6598 18.2446 20.8017 18.1718 20.9241 18.0721C21.0464 17.9725 21.1464 17.8483 21.2176 17.7075C22.0543 16.4638 22.5012 14.9989 22.5012 13.5C22.5012 12.001 22.0543 10.5361 21.2176 9.29247H21.2063Z" fill="#5BBDF4"/>
</svg>
