<svg width="27" height="27" viewBox="0 0 27 27" fill="none" xmlns="http://www.w3.org/2000/svg">
<path d="M16.875 13.3313C16.2766 12.7339 15.4703 12.3912 14.625 12.375H14.5575H13.4325H12.4425C12.1801 12.3649 11.9312 12.2564 11.745 12.0712C11.6568 11.9869 11.5865 11.8856 11.5382 11.7735C11.4899 11.6615 11.4645 11.5408 11.4638 11.4187V11.3175C11.509 10.9835 11.6775 10.6785 11.9363 10.4625C12.3867 10.1269 12.9387 9.95616 13.5 9.97875C13.661 9.96718 13.8227 9.96718 13.9838 9.97875C14.6138 10.0617 15.203 10.3367 15.6713 10.7662C15.7821 10.8645 15.9111 10.94 16.0511 10.9883C16.1911 11.0367 16.3392 11.057 16.487 11.0481C16.6348 11.0392 16.7794 11.0013 16.9126 10.9366C17.0458 10.8718 17.1649 10.7814 17.2631 10.6706C17.3614 10.5598 17.4368 10.4308 17.4852 10.2908C17.5336 10.1508 17.5539 10.0027 17.545 9.85488C17.5361 9.70706 17.4982 9.56244 17.4334 9.42927C17.3687 9.2961 17.2783 9.17699 17.1675 9.07875C16.4395 8.46261 15.563 8.04763 14.625 7.875V6.75C14.625 6.45163 14.5065 6.16548 14.2955 5.95451C14.0845 5.74353 13.7984 5.625 13.5 5.625C13.2016 5.625 12.9155 5.74353 12.7045 5.95451C12.4935 6.16548 12.375 6.45163 12.375 6.75V7.875C11.6815 8.01133 11.0323 8.31659 10.485 8.76375C9.7879 9.35784 9.34171 10.1939 9.23625 11.1037C9.23044 11.2087 9.23044 11.3138 9.23625 11.4187C9.24113 12.2642 9.58095 13.0733 10.1813 13.6687C10.7656 14.2529 11.5493 14.5945 12.375 14.625H12.4425H13.5675H14.5575C14.8168 14.6391 15.0632 14.7424 15.255 14.9175C15.4318 15.0936 15.5327 15.3318 15.5363 15.5813V15.6713C15.4916 16.0086 15.3232 16.3173 15.0638 16.5375C14.6133 16.8731 14.0613 17.0438 13.5 17.0213C13.339 17.0328 13.1773 17.0328 13.0163 17.0213V17.0213C12.3892 16.9283 11.8028 16.6546 11.3288 16.2338C11.2203 16.1262 11.0911 16.0419 10.9491 15.9859C10.807 15.9299 10.655 15.9035 10.5024 15.9081C10.3497 15.9128 10.1996 15.9484 10.0612 16.013C9.92284 16.0775 9.79903 16.1695 9.69734 16.2834C9.59565 16.3974 9.51822 16.5308 9.46976 16.6756C9.4213 16.8204 9.40284 16.9736 9.41548 17.1258C9.42813 17.2779 9.47162 17.4259 9.54332 17.5608C9.61501 17.6956 9.71341 17.8144 9.8325 17.91C10.5569 18.5338 11.4346 18.9532 12.375 19.125V20.25C12.375 20.5484 12.4935 20.8345 12.7045 21.0455C12.9155 21.2565 13.2016 21.375 13.5 21.375C13.7984 21.375 14.0845 21.2565 14.2955 21.0455C14.5065 20.8345 14.625 20.5484 14.625 20.25V19.125C15.3193 18.9845 15.9683 18.6754 16.515 18.225C17.2166 17.6346 17.6638 16.7965 17.7638 15.885C17.7694 15.7801 17.7694 15.6749 17.7638 15.57C17.7709 14.7364 17.452 13.933 16.875 13.3313ZM24.75 13.5C24.75 15.725 24.0902 17.9001 22.854 19.7502C21.6179 21.6002 19.8609 23.0422 17.8052 23.8936C15.7495 24.7451 13.4875 24.9679 11.3052 24.5338C9.12295 24.0998 7.11839 23.0283 5.54505 21.455C3.97171 19.8816 2.90025 17.8771 2.46617 15.6948C2.03209 13.5125 2.25487 11.2505 3.10636 9.19481C3.95785 7.13914 5.39979 5.38213 7.24984 4.14597C9.09989 2.9098 11.275 2.25 13.5 2.25C14.9774 2.25 16.4403 2.54099 17.8052 3.10636C19.1701 3.67172 20.4103 4.50039 21.455 5.54505C22.4996 6.58971 23.3283 7.8299 23.8937 9.19481C24.459 10.5597 24.75 12.0226 24.75 13.5V13.5ZM22.5 13.5C22.4984 11.4179 21.7749 9.40076 20.4528 7.79227C19.1307 6.18378 17.2918 5.08344 15.2494 4.67873C13.207 4.27402 11.0875 4.58997 9.25188 5.57276C7.41631 6.55554 5.97828 8.14436 5.18278 10.0685C4.38729 11.9927 4.28354 14.1331 4.88922 16.1252C5.49491 18.1172 6.77255 19.8377 8.50447 20.9934C10.2364 22.1491 12.3154 22.6685 14.3874 22.4632C16.4594 22.2579 18.3961 21.3406 19.8675 19.8675C20.703 19.0311 21.3655 18.0382 21.8172 16.9456C22.2689 15.8531 22.5009 14.6822 22.5 13.5Z" fill="#5BBDF4"/>
</svg>
