<svg width="27" height="27" viewBox="0 0 27 27" fill="none" xmlns="http://www.w3.org/2000/svg">
<path d="M9 3.375H6.75C5.85489 3.375 4.99645 3.73058 4.36351 4.36351C3.73058 4.99645 3.375 5.85489 3.375 6.75V9C3.375 9.89511 3.73058 10.7536 4.36351 11.3865C4.99645 12.0194 5.85489 12.375 6.75 12.375H9C9.89511 12.375 10.7536 12.0194 11.3865 11.3865C12.0194 10.7536 12.375 9.89511 12.375 9V6.75C12.375 5.85489 12.0194 4.99645 11.3865 4.36351C10.7536 3.73058 9.89511 3.375 9 3.375ZM10.125 9C10.125 9.29837 10.0065 9.58452 9.79549 9.79549C9.58452 10.0065 9.29837 10.125 9 10.125H6.75C6.45163 10.125 6.16548 10.0065 5.95451 9.79549C5.74353 9.58452 5.625 9.29837 5.625 9V6.75C5.625 6.45163 5.74353 6.16548 5.95451 5.95451C6.16548 5.74353 6.45163 5.625 6.75 5.625H9C9.29837 5.625 9.58452 5.74353 9.79549 5.95451C10.0065 6.16548 10.125 6.45163 10.125 6.75V9ZM9 14.625H6.75C5.85489 14.625 4.99645 14.9806 4.36351 15.6135C3.73058 16.2464 3.375 17.1049 3.375 18V20.25C3.375 21.1451 3.73058 22.0036 4.36351 22.6365C4.99645 23.2694 5.85489 23.625 6.75 23.625H9C9.89511 23.625 10.7536 23.2694 11.3865 22.6365C12.0194 22.0036 12.375 21.1451 12.375 20.25V18C12.375 17.1049 12.0194 16.2464 11.3865 15.6135C10.7536 14.9806 9.89511 14.625 9 14.625ZM10.125 20.25C10.125 20.5484 10.0065 20.8345 9.79549 21.0455C9.58452 21.2565 9.29837 21.375 9 21.375H6.75C6.45163 21.375 6.16548 21.2565 5.95451 21.0455C5.74353 20.8345 5.625 20.5484 5.625 20.25V18C5.625 17.7016 5.74353 17.4155 5.95451 17.2045C6.16548 16.9935 6.45163 16.875 6.75 16.875H9C9.29837 16.875 9.58452 16.9935 9.79549 17.2045C10.0065 17.4155 10.125 17.7016 10.125 18V20.25ZM20.25 14.625H18C17.1049 14.625 16.2464 14.9806 15.6135 15.6135C14.9806 16.2464 14.625 17.1049 14.625 18V20.25C14.625 21.1451 14.9806 22.0036 15.6135 22.6365C16.2464 23.2694 17.1049 23.625 18 23.625H20.25C21.1451 23.625 22.0036 23.2694 22.6365 22.6365C23.2694 22.0036 23.625 21.1451 23.625 20.25V18C23.625 17.1049 23.2694 16.2464 22.6365 15.6135C22.0036 14.9806 21.1451 14.625 20.25 14.625ZM21.375 20.25C21.375 20.5484 21.2565 20.8345 21.0455 21.0455C20.8345 21.2565 20.5484 21.375 20.25 21.375H18C17.7016 21.375 17.4155 21.2565 17.2045 21.0455C16.9935 20.8345 16.875 20.5484 16.875 20.25V18C16.875 17.7016 16.9935 17.4155 17.2045 17.2045C17.4155 16.9935 17.7016 16.875 18 16.875H20.25C20.5484 16.875 20.8345 16.9935 21.0455 17.2045C21.2565 17.4155 21.375 17.7016 21.375 18V20.25ZM14.625 5.625C14.625 5.32663 14.7435 5.04048 14.9545 4.82951C15.1655 4.61853 15.4516 4.5 15.75 4.5H22.5C22.7984 4.5 23.0845 4.61853 23.2955 4.82951C23.5065 5.04048 23.625 5.32663 23.625 5.625C23.625 5.92337 23.5065 6.20952 23.2955 6.42049C23.0845 6.63147 22.7984 6.75 22.5 6.75H15.75C15.4516 6.75 15.1655 6.63147 14.9545 6.42049C14.7435 6.20952 14.625 5.92337 14.625 5.625ZM23.625 10.125C23.625 10.4234 23.5065 10.7095 23.2955 10.9205C23.0845 11.1315 22.7984 11.25 22.5 11.25H15.75C15.4516 11.25 15.1655 11.1315 14.9545 10.9205C14.7435 10.7095 14.625 10.4234 14.625 10.125C14.625 9.82663 14.7435 9.54048 14.9545 9.32951C15.1655 9.11853 15.4516 9 15.75 9H22.5C22.7984 9 23.0845 9.11853 23.2955 9.32951C23.5065 9.54048 23.625 9.82663 23.625 10.125Z" fill="#5BBDF4"/>
</svg>
