<svg width="27" height="27" viewBox="0 0 27 27" fill="none" xmlns="http://www.w3.org/2000/svg">
<path d="M6.46875 14.625C6.46875 14.3469 6.55122 14.075 6.70575 13.8437C6.86027 13.6125 7.07989 13.4322 7.33685 13.3258C7.59381 13.2194 7.87656 13.1915 8.14935 13.2458C8.42213 13.3 8.6727 13.434 8.86937 13.6306C9.06604 13.8273 9.19997 14.0779 9.25423 14.3507C9.30849 14.6234 9.28064 14.9062 9.17421 15.1631C9.06777 15.4201 8.88753 15.6397 8.65627 15.7943C8.42501 15.9488 8.15313 16.0312 7.875 16.0312C7.50204 16.0312 7.14435 15.8831 6.88063 15.6194C6.61691 15.3556 6.46875 14.998 6.46875 14.625V14.625ZM7.875 20.5312C8.15313 20.5312 8.42501 20.4488 8.65627 20.2943C8.88753 20.1397 9.06777 19.9201 9.17421 19.6631C9.28064 19.4062 9.30849 19.1234 9.25423 18.8507C9.19997 18.5779 9.06604 18.3273 8.86937 18.1306C8.6727 17.934 8.42213 17.8 8.14935 17.7458C7.87656 17.6915 7.59381 17.7194 7.33685 17.8258C7.07989 17.9322 6.86027 18.1125 6.70575 18.3437C6.55122 18.575 6.46875 18.8469 6.46875 19.125C6.46875 19.498 6.61691 19.8556 6.88063 20.1194C7.14435 20.3831 7.50204 20.5312 7.875 20.5312V20.5312ZM13.5 16.0312C13.7781 16.0312 14.05 15.9488 14.2813 15.7943C14.5125 15.6397 14.6928 15.4201 14.7992 15.1631C14.9056 14.9062 14.9335 14.6234 14.8792 14.3507C14.825 14.0779 14.691 13.8273 14.4944 13.6306C14.2977 13.434 14.0471 13.3 13.7743 13.2458C13.5016 13.1915 13.2188 13.2194 12.9619 13.3258C12.7049 13.4322 12.4853 13.6125 12.3307 13.8437C12.1762 14.075 12.0938 14.3469 12.0938 14.625C12.0938 14.998 12.2419 15.3556 12.5056 15.6194C12.7694 15.8831 13.127 16.0312 13.5 16.0312V16.0312ZM13.5 20.5312C13.7781 20.5312 14.05 20.4488 14.2813 20.2943C14.5125 20.1397 14.6928 19.9201 14.7992 19.6631C14.9056 19.4062 14.9335 19.1234 14.8792 18.8507C14.825 18.5779 14.691 18.3273 14.4944 18.1306C14.2977 17.934 14.0471 17.8 13.7743 17.7458C13.5016 17.6915 13.2188 17.7194 12.9619 17.8258C12.7049 17.9322 12.4853 18.1125 12.3307 18.3437C12.1762 18.575 12.0938 18.8469 12.0938 19.125C12.0938 19.498 12.2419 19.8556 12.5056 20.1194C12.7694 20.3831 13.127 20.5312 13.5 20.5312V20.5312ZM19.125 16.0312C19.4031 16.0312 19.675 15.9488 19.9063 15.7943C20.1375 15.6397 20.3178 15.4201 20.4242 15.1631C20.5306 14.9062 20.5585 14.6234 20.5042 14.3507C20.45 14.0779 20.316 13.8273 20.1194 13.6306C19.9227 13.434 19.6721 13.3 19.3993 13.2458C19.1266 13.1915 18.8438 13.2194 18.5869 13.3258C18.3299 13.4322 18.1103 13.6125 17.9557 13.8437C17.8012 14.075 17.7188 14.3469 17.7188 14.625C17.7188 14.998 17.8669 15.3556 18.1306 15.6194C18.3944 15.8831 18.752 16.0312 19.125 16.0312ZM24.75 7.875V21.375C24.75 22.2701 24.3944 23.1286 23.7615 23.7615C23.1286 24.3944 22.2701 24.75 21.375 24.75H5.625C4.72989 24.75 3.87145 24.3944 3.23851 23.7615C2.60558 23.1286 2.25 22.2701 2.25 21.375V7.875C2.25 6.97989 2.60558 6.12145 3.23851 5.48851C3.87145 4.85558 4.72989 4.5 5.625 4.5H6.75V3.375C6.75 3.07663 6.86853 2.79048 7.07951 2.5795C7.29048 2.36853 7.57663 2.25 7.875 2.25C8.17337 2.25 8.45952 2.36853 8.67049 2.5795C8.88147 2.79048 9 3.07663 9 3.375V4.5H18V3.375C18 3.07663 18.1185 2.79048 18.3295 2.5795C18.5405 2.36853 18.8266 2.25 19.125 2.25C19.4234 2.25 19.7095 2.36853 19.9205 2.5795C20.1315 2.79048 20.25 3.07663 20.25 3.375V4.5H21.375C22.2701 4.5 23.1286 4.85558 23.7615 5.48851C24.3944 6.12145 24.75 6.97989 24.75 7.875V7.875ZM4.5 7.875V9H22.5V7.875C22.5 7.57663 22.3815 7.29048 22.1705 7.07951C21.9595 6.86853 21.6734 6.75 21.375 6.75H5.625C5.32663 6.75 5.04048 6.86853 4.82951 7.07951C4.61853 7.29048 4.5 7.57663 4.5 7.875V7.875ZM22.5 11.25H4.5V21.375C4.5 21.6734 4.61853 21.9595 4.82951 22.1705C5.04048 22.3815 5.32663 22.5 5.625 22.5H21.375C21.6734 22.5 21.9595 22.3815 22.1705 22.1705C22.3815 21.9595 22.5 21.6734 22.5 21.375V11.25Z" fill="#5BBDF4"/>
</svg>
