<svg width="27" height="27" viewBox="0 0 27 27" fill="none" xmlns="http://www.w3.org/2000/svg">
<path d="M7.875 14.625C8.76502 14.625 9.63504 14.3611 10.3751 13.8666C11.1151 13.3721 11.6919 12.6693 12.0325 11.8471C12.3731 11.0248 12.4622 10.12 12.2885 9.2471C12.1149 8.37418 11.6863 7.57236 11.057 6.94302C10.4276 6.31368 9.62582 5.8851 8.75291 5.71147C7.87999 5.53783 6.97519 5.62695 6.15292 5.96754C5.33066 6.30814 4.62785 6.88491 4.13339 7.62494C3.63892 8.36496 3.375 9.23499 3.375 10.125C3.375 11.3185 3.84911 12.4631 4.69302 13.307C5.53693 14.1509 6.68153 14.625 7.875 14.625ZM7.875 7.875C8.32001 7.875 8.75502 8.00696 9.12503 8.2542C9.49504 8.50143 9.78343 8.85283 9.95373 9.26396C10.124 9.6751 10.1686 10.1275 10.0818 10.564C9.99495 11.0004 9.78066 11.4013 9.46599 11.716C9.15132 12.0307 8.75041 12.245 8.31395 12.3318C7.8775 12.4186 7.4251 12.374 7.01396 12.2037C6.60283 12.0334 6.25143 11.745 6.00419 11.375C5.75696 11.005 5.625 10.57 5.625 10.125C5.625 9.52827 5.86205 8.95597 6.28401 8.53401C6.70597 8.11205 7.27826 7.875 7.875 7.875V7.875ZM13.5 19.125V21.375C13.5 21.6734 13.3815 21.9595 13.1705 22.1705C12.9595 22.3815 12.6734 22.5 12.375 22.5C12.0766 22.5 11.7905 22.3815 11.5795 22.1705C11.3685 21.9595 11.25 21.6734 11.25 21.375V19.125C11.25 18.8266 11.1315 18.5405 10.9205 18.3295C10.7095 18.1185 10.4234 18 10.125 18H5.625C5.32663 18 5.04048 18.1185 4.82951 18.3295C4.61853 18.5405 4.5 18.8266 4.5 19.125V21.375C4.5 21.6734 4.38147 21.9595 4.1705 22.1705C3.95952 22.3815 3.67337 22.5 3.375 22.5C3.07663 22.5 2.79048 22.3815 2.5795 22.1705C2.36853 21.9595 2.25 21.6734 2.25 21.375V19.125C2.25 18.2299 2.60558 17.3715 3.23851 16.7385C3.87145 16.1056 4.72989 15.75 5.625 15.75H10.125C11.0201 15.75 11.8786 16.1056 12.5115 16.7385C13.1444 17.3715 13.5 18.2299 13.5 19.125ZM19.125 12.375C20.015 12.375 20.885 12.1111 21.6251 11.6166C22.3651 11.1221 22.9419 10.4193 23.2825 9.59708C23.6231 8.77481 23.7122 7.87001 23.5385 6.9971C23.3649 6.12418 22.9363 5.32236 22.307 4.69302C21.6776 4.06368 20.8758 3.6351 20.0029 3.46147C19.13 3.28783 18.2252 3.37695 17.4029 3.71754C16.5807 4.05814 15.8779 4.63491 15.3834 5.37494C14.8889 6.11496 14.625 6.98499 14.625 7.875C14.625 9.06848 15.0991 10.2131 15.943 11.057C16.7869 11.9009 17.9315 12.375 19.125 12.375ZM19.125 5.625C19.57 5.625 20.005 5.75696 20.375 6.0042C20.745 6.25143 21.0334 6.60283 21.2037 7.01396C21.374 7.4251 21.4186 7.8775 21.3318 8.31396C21.245 8.75041 21.0307 9.15132 20.716 9.46599C20.4013 9.78066 20.0004 9.99495 19.564 10.0818C19.1275 10.1686 18.6751 10.124 18.264 9.95373C17.8528 9.78343 17.5014 9.49505 17.2542 9.12503C17.007 8.75502 16.875 8.32001 16.875 7.875C16.875 7.27827 17.1121 6.70597 17.534 6.28401C17.956 5.86205 18.5283 5.625 19.125 5.625V5.625ZM24.75 16.875V19.125C24.75 19.4234 24.6315 19.7095 24.4205 19.9205C24.2095 20.1315 23.9234 20.25 23.625 20.25C23.3266 20.25 23.0405 20.1315 22.8295 19.9205C22.6185 19.7095 22.5 19.4234 22.5 19.125V16.875C22.5 16.5766 22.3815 16.2905 22.1705 16.0795C21.9595 15.8685 21.6734 15.75 21.375 15.75H16.875C16.6817 15.7506 16.4919 15.801 16.3238 15.8963V15.8963C16.132 16.0028 15.9756 16.1632 15.8737 16.3575V16.3575C15.8071 16.4919 15.7143 16.6115 15.6008 16.7095C15.4873 16.8075 15.3553 16.8817 15.2126 16.928C15.07 16.9742 14.9195 16.9914 14.7701 16.9787C14.6207 16.9659 14.4753 16.9234 14.3426 16.8536C14.2098 16.7839 14.0924 16.6883 13.9971 16.5725C13.9018 16.4567 13.8307 16.323 13.7878 16.1793C13.7449 16.0356 13.7312 15.8848 13.7475 15.7357C13.7638 15.5866 13.8097 15.4423 13.8825 15.3113C14.1881 14.7321 14.6525 14.252 15.2212 13.9275V13.9275C15.7267 13.6456 16.2962 13.4983 16.875 13.5H21.375C22.2701 13.5 23.1286 13.8556 23.7615 14.4885C24.3944 15.1215 24.75 15.9799 24.75 16.875Z" fill="#5BBDF4"/>
</svg>
