<svg width="40" height="40" viewBox="0 0 40 40" fill="none" xmlns="http://www.w3.org/2000/svg">
<path fill-rule="evenodd" clip-rule="evenodd" d="M20.3966 29.8092C22.4381 28.7889 31.6667 23.6953 31.6667 15C31.6667 8.55668 26.4434 3.33334 20 3.33334C13.5567 3.33334 8.33337 8.55668 8.33337 15C8.33337 23.6953 17.562 28.7889 19.6035 29.8092C19.8583 29.9366 20.1418 29.9366 20.3966 29.8092ZM20 20C22.7615 20 25 17.7614 25 15C25 12.2386 22.7615 10 20 10C17.2386 10 15 12.2386 15 15C15 17.7614 17.2386 20 20 20Z" fill="#5BBDF4"/>
<path d="M30.1037 27.5C31.1276 28.2601 31.6667 29.1223 31.6667 30C31.6667 30.8777 31.1276 31.7399 30.1037 32.5C29.0797 33.2601 27.6069 33.8913 25.8334 34.3301C24.0598 34.769 22.048 35 20 35C17.9521 35 15.9403 34.769 14.1667 34.3301C12.3932 33.8913 10.9204 33.2601 9.89641 32.5C8.87245 31.7399 8.33337 30.8777 8.33337 30C8.33337 29.1223 8.87245 28.2601 9.89641 27.5" stroke="#5BBDF4" stroke-width="2" stroke-linecap="round"/>
</svg>
