<svg width="23" height="23" viewBox="0 0 23 23" fill="none" xmlns="http://www.w3.org/2000/svg">
<path d="M14.875 11.3313C14.2766 10.7339 13.4703 10.3912 12.625 10.375H12.5575H11.4325H10.4425C10.1801 10.3649 9.93115 10.2564 9.745 10.0712C9.65682 9.98687 9.58648 9.88563 9.53816 9.77354C9.48985 9.66145 9.46455 9.5408 9.46375 9.41875V9.3175C9.509 8.98351 9.67755 8.67853 9.93625 8.4625C10.3867 8.12693 10.9387 7.95616 11.5 7.97875C11.661 7.96718 11.8227 7.96718 11.9838 7.97875C12.6138 8.06171 13.203 8.33667 13.6713 8.76625C13.7821 8.8645 13.9111 8.93995 14.0511 8.98832C14.1911 9.03668 14.3392 9.057 14.487 9.04813C14.6348 9.03925 14.7794 9.00134 14.9126 8.93657C15.0458 8.87179 15.1649 8.78143 15.2631 8.67062C15.3614 8.55982 15.4368 8.43075 15.4852 8.29079C15.5336 8.15082 15.5539 8.0027 15.545 7.85488C15.5361 7.70706 15.4982 7.56244 15.4334 7.42927C15.3687 7.2961 15.2783 7.17699 15.1675 7.07875C14.4395 6.46261 13.563 6.04763 12.625 5.875V4.75C12.625 4.45163 12.5065 4.16548 12.2955 3.9545C12.0845 3.74353 11.7984 3.625 11.5 3.625C11.2016 3.625 10.9155 3.74353 10.7045 3.9545C10.4935 4.16548 10.375 4.45163 10.375 4.75V5.875C9.68151 6.01133 9.03234 6.31659 8.485 6.76375C7.7879 7.35784 7.34171 8.19393 7.23625 9.10375C7.23044 9.20867 7.23044 9.31383 7.23625 9.41875C7.24113 10.2642 7.58095 11.0733 8.18125 11.6687C8.76562 12.2529 9.54928 12.5945 10.375 12.625H10.4425H11.5675H12.5575C12.8168 12.6391 13.0632 12.7424 13.255 12.9175C13.4318 13.0936 13.5327 13.3318 13.5363 13.5813V13.6713C13.4916 14.0086 13.3232 14.3173 13.0638 14.5375C12.6133 14.8731 12.0613 15.0438 11.5 15.0212C11.339 15.0328 11.1773 15.0328 11.0163 15.0212C10.3892 14.9283 9.8028 14.6546 9.32876 14.2338C9.22032 14.1262 9.09113 14.0419 8.94906 13.9859C8.80699 13.9299 8.65501 13.9035 8.50237 13.9081C8.34974 13.9128 8.19965 13.9484 8.06125 14.013C7.92284 14.0775 7.79903 14.1695 7.69734 14.2834C7.59565 14.3974 7.51822 14.5308 7.46976 14.6756C7.4213 14.8204 7.40284 14.9736 7.41548 15.1258C7.42813 15.2779 7.47162 15.4259 7.54332 15.5608C7.61501 15.6956 7.71341 15.8144 7.8325 15.91C8.55694 16.5338 9.43457 16.9532 10.375 17.125V18.25C10.375 18.5484 10.4935 18.8345 10.7045 19.0455C10.9155 19.2565 11.2016 19.375 11.5 19.375C11.7984 19.375 12.0845 19.2565 12.2955 19.0455C12.5065 18.8345 12.625 18.5484 12.625 18.25V17.125C13.3193 16.9845 13.9683 16.6754 14.515 16.225C15.2166 15.6346 15.6638 14.7965 15.7638 13.885C15.7694 13.7801 15.7694 13.6749 15.7638 13.57C15.7709 12.7364 15.452 11.933 14.875 11.3313ZM22.75 11.5C22.75 13.725 22.0902 15.9001 20.854 17.7502C19.6179 19.6002 17.8609 21.0422 15.8052 21.8936C13.7495 22.7451 11.4875 22.9679 9.30524 22.5338C7.12295 22.0998 5.11839 21.0283 3.54505 19.455C1.97171 17.8816 0.900254 15.8771 0.466171 13.6948C0.0320869 11.5125 0.254874 9.25048 1.10636 7.19481C1.95785 5.13914 3.39979 3.38213 5.24984 2.14597C7.09989 0.909801 9.27497 0.25 11.5 0.25C12.9774 0.25 14.4403 0.54099 15.8052 1.10636C17.1701 1.67172 18.4103 2.50039 19.455 3.54505C20.4996 4.58971 21.3283 5.8299 21.8937 7.19481C22.459 8.55972 22.75 10.0226 22.75 11.5ZM20.5 11.5C20.4984 9.41789 19.7749 7.40076 18.4528 5.79227C17.1307 4.18378 15.2918 3.08344 13.2494 2.67873C11.207 2.27402 9.08745 2.58997 7.25188 3.57276C5.41631 4.55554 3.97828 6.14436 3.18278 8.06851C2.38729 9.99266 2.28354 12.1331 2.88922 14.1252C3.49491 16.1172 4.77255 17.8377 6.50447 18.9934C8.23639 20.1491 10.3154 20.6685 12.3874 20.4632C14.4594 20.2579 16.3961 19.3406 17.8675 17.8675C18.703 17.0311 19.3655 16.0382 19.8172 14.9456C20.2689 13.8531 20.5009 12.6822 20.5 11.5Z" fill="#5BBDF4"/>
</svg>
