<svg width="31" height="31" viewBox="0 0 31 31" fill="none" xmlns="http://www.w3.org/2000/svg">
<path fill-rule="evenodd" clip-rule="evenodd" d="M7.04404 5.75241C6.45825 6.3382 6.45825 7.28101 6.45825 9.16663V23.125C6.45825 25.0106 6.45825 25.9534 7.04404 26.5392C7.62982 27.125 8.57263 27.125 10.4583 27.125H20.5416C22.4272 27.125 23.37 27.125 23.9558 26.5392C24.5416 25.9534 24.5416 25.0106 24.5416 23.125V9.16663C24.5416 7.28101 24.5416 6.3382 23.9558 5.75241C23.37 5.16663 22.4272 5.16663 20.5416 5.16663H10.4583C8.57263 5.16663 7.62982 5.16663 7.04404 5.75241ZM11.6249 10.625C11.0726 10.625 10.6249 11.0727 10.6249 11.625C10.6249 12.1772 11.0726 12.625 11.6249 12.625H19.3749C19.9272 12.625 20.3749 12.1772 20.3749 11.625C20.3749 11.0727 19.9272 10.625 19.3749 10.625H11.6249ZM11.6249 15.7916C11.0726 15.7916 10.6249 16.2393 10.6249 16.7916C10.6249 17.3439 11.0726 17.7916 11.6249 17.7916H19.3749C19.9272 17.7916 20.3749 17.3439 20.3749 16.7916C20.3749 16.2393 19.9272 15.7916 19.3749 15.7916H11.6249ZM11.6249 20.9583C11.0726 20.9583 10.6249 21.406 10.6249 21.9583C10.6249 22.5106 11.0726 22.9583 11.6249 22.9583H16.7916C17.3439 22.9583 17.7916 22.5106 17.7916 21.9583C17.7916 21.406 17.3439 20.9583 16.7916 20.9583H11.6249Z" fill="black"/>
</svg>
