<svg width="31" height="31" viewBox="0 0 31 31" fill="none" xmlns="http://www.w3.org/2000/svg">
<path fill-rule="evenodd" clip-rule="evenodd" d="M7.04416 5.75241C6.45837 6.3382 6.45837 7.28101 6.45837 9.16663V23.125C6.45837 25.0106 6.45837 25.9534 7.04416 26.5392C7.62995 27.125 8.57276 27.125 10.4584 27.125H20.5417C22.4273 27.125 23.3701 27.125 23.9559 26.5392C24.5417 25.9534 24.5417 25.0106 24.5417 23.125V9.16663C24.5417 7.28101 24.5417 6.3382 23.9559 5.75241C23.3701 5.16663 22.4273 5.16663 20.5417 5.16663H10.4584C8.57276 5.16663 7.62995 5.16663 7.04416 5.75241ZM11.625 10.625C11.0728 10.625 10.625 11.0727 10.625 11.625C10.625 12.1772 11.0728 12.625 11.625 12.625H19.375C19.9273 12.625 20.375 12.1772 20.375 11.625C20.375 11.0727 19.9273 10.625 19.375 10.625H11.625ZM11.625 15.7916C11.0728 15.7916 10.625 16.2393 10.625 16.7916C10.625 17.3439 11.0728 17.7916 11.625 17.7916H19.375C19.9273 17.7916 20.375 17.3439 20.375 16.7916C20.375 16.2393 19.9273 15.7916 19.375 15.7916H11.625ZM11.625 20.9583C11.0728 20.9583 10.625 21.406 10.625 21.9583C10.625 22.5106 11.0728 22.9583 11.625 22.9583H16.7917C17.344 22.9583 17.7917 22.5106 17.7917 21.9583C17.7917 21.406 17.344 20.9583 16.7917 20.9583H11.625Z" fill="#5BBDF4"/>
</svg>
