<svg width="25" height="24" viewBox="0 0 25 24" fill="none" xmlns="http://www.w3.org/2000/svg">
<path fill-rule="evenodd" clip-rule="evenodd" d="M15.5889 0.913733C14.4849 0.329134 13.2286 0 11.9023 0C7.88373 0 4.50777 3.02162 4.06399 7.01564L3.7085 10.215C3.62496 10.9668 3.58319 11.3428 3.50725 11.7095C3.37586 12.3439 3.1679 12.96 2.88794 13.5442C2.7261 13.8819 2.53151 14.2063 2.14231 14.8549L2.14231 14.8549L1.01384 16.7357C0.208082 18.0786 -0.194795 18.7501 0.0924337 19.2574C0.379663 19.7647 1.16272 19.7647 2.72883 19.7647H21.0758C22.6419 19.7647 23.425 19.7647 23.7122 19.2574C23.9994 18.7501 23.5966 18.0786 22.7908 16.7357L21.6623 14.8549C21.2731 14.2063 21.0785 13.8819 20.9167 13.5442C20.6367 12.96 20.4288 12.3439 20.2974 11.7095C20.2215 11.3428 20.1797 10.9669 20.0962 10.2151L20.0961 10.215L20.078 10.0515C16.9988 9.89789 14.5494 7.35263 14.5494 4.23529C14.5494 3.0007 14.9336 1.85584 15.5889 0.913733ZM17.9363 2.80776C17.6904 3.22661 17.5494 3.71448 17.5494 4.23529C17.5494 5.57617 18.4841 6.69874 19.7374 6.98702C19.5547 5.39484 18.9058 3.95833 17.9363 2.80776Z" fill="black"/>
<path d="M7.28467 20C7.28467 20.5253 7.40106 21.0454 7.62721 21.5307C7.85336 22.016 8.18482 22.457 8.60269 22.8284C9.02055 23.1999 9.51663 23.4945 10.0626 23.6955C10.6086 23.8965 11.1937 24 11.7847 24C12.3756 24 12.9608 23.8965 13.5067 23.6955C14.0527 23.4945 14.5488 23.1999 14.9666 22.8284C15.3845 22.457 15.716 22.016 15.9421 21.5307C16.1683 21.0454 16.2847 20.5253 16.2847 20L11.7847 20H7.28467Z" fill="black"/>
<circle cx="20.2847" cy="4" r="3.5" fill="#10EF4E" stroke="#10EF4E"/>
</svg>
