<svg width="30" height="30" viewBox="0 0 30 30" fill="none" xmlns="http://www.w3.org/2000/svg">
<path d="M2.5 7.75C2.5 5.86438 2.5 4.92157 3.08579 4.33579C3.67157 3.75 4.61438 3.75 6.5 3.75H23.5C25.3856 3.75 26.3284 3.75 26.9142 4.33579C27.5 4.92157 27.5 5.86438 27.5 7.75V9.25C27.5 10.1928 27.5 10.6642 27.2071 10.9571C26.9142 11.25 26.4428 11.25 25.5 11.25H4.5C3.55719 11.25 3.08579 11.25 2.79289 10.9571C2.5 10.6642 2.5 10.1928 2.5 9.25V7.75Z" fill="#5BBDF4"/>
<path fill-rule="evenodd" clip-rule="evenodd" d="M5.87868 25.3713C5 24.4926 5 23.0784 5 20.25V13.75H25V20.25C25 23.0784 25 24.4926 24.1213 25.3713C23.2426 26.25 21.8284 26.25 19 26.25H11C8.17157 26.25 6.75736 26.25 5.87868 25.3713ZM12.5 19C11.9477 19 11.5 19.4477 11.5 20C11.5 20.5523 11.9477 21 12.5 21H17.5C18.0523 21 18.5 20.5523 18.5 20C18.5 19.4477 18.0523 19 17.5 19H12.5Z" fill="#5BBDF4"/>
</svg>
