<svg width="27" height="27" viewBox="0 0 27 27" fill="none" xmlns="http://www.w3.org/2000/svg">
<path d="M22.6124 19.5187C22.6057 18.6372 22.2544 17.7933 21.6336 17.1675L21.3749 16.875C20.4049 15.9051 19.0902 15.3591 17.7186 15.3562C16.9372 15.3621 16.1676 15.5468 15.4686 15.8962L14.5124 16.3687C13.6984 15.9745 12.9568 15.4458 12.3186 14.805C11.679 14.147 11.1543 13.3864 10.7661 12.555L11.2386 11.5987C11.5938 10.9014 11.7825 10.1312 11.7899 9.34872C11.7782 8.66399 11.631 7.98836 11.3568 7.36082C11.0826 6.73328 10.6869 6.16625 10.1924 5.69247L9.87736 5.38872C9.24504 4.7556 8.38717 4.39951 7.49236 4.39872H6.54736C5.65226 4.39872 4.79381 4.7543 4.16088 5.38724C3.52794 6.02017 3.17236 6.87861 3.17236 7.77372V7.87497C3.20787 9.72046 3.49553 11.5524 4.02736 13.32C4.71897 15.6094 5.95409 17.6975 7.62736 19.4062V19.4062C9.33005 21.0842 11.4148 22.3234 13.7024 23.0175C15.4685 23.557 17.301 23.8486 19.1474 23.8837H19.2261C20.1212 23.8837 20.9797 23.5281 21.6126 22.8952C22.2455 22.2623 22.6011 21.4038 22.6011 20.5087V19.5637L22.6124 19.5187ZM19.2374 21.6112C17.6043 21.5851 15.9831 21.3275 14.4224 20.8462C12.481 20.2599 10.7097 19.2141 9.25861 17.7975V17.7975C7.84498 16.346 6.80292 14.5745 6.22111 12.6337C5.74825 11.0675 5.49459 9.4433 5.46736 7.80747V7.80747C5.46736 7.5091 5.58589 7.22295 5.79687 7.01198C6.00785 6.801 6.29399 6.68247 6.59236 6.68247H7.53736C7.68542 6.68161 7.83219 6.70999 7.96926 6.76598C8.10633 6.82196 8.23099 6.90445 8.33611 7.00872L8.63986 7.31247C9.16284 7.85651 9.45338 8.58284 9.44986 9.33747C9.44993 9.78772 9.34191 10.2314 9.13486 10.6312L8.42611 12.06C8.35926 12.2065 8.32466 12.3658 8.32466 12.5268C8.32466 12.6879 8.35926 12.8472 8.42611 12.9937C8.9459 14.2563 9.71062 15.4033 10.6761 16.3687V16.3687C11.6411 17.3347 12.7883 18.0995 14.0511 18.6187C14.1977 18.6856 14.3569 18.7202 14.518 18.7202C14.6791 18.7202 14.8383 18.6856 14.9849 18.6187L16.4136 17.8987C16.9617 17.6197 17.5844 17.5227 18.1913 17.6219C18.7983 17.721 19.3578 18.0111 19.7886 18.45L20.0924 18.765C20.3002 18.9745 20.4174 19.2573 20.4186 19.5525V20.4862C20.4189 20.6398 20.3877 20.7918 20.327 20.9329C20.2663 21.074 20.1773 21.2012 20.0656 21.3066C19.9539 21.412 19.8218 21.4934 19.6774 21.5458C19.533 21.5982 19.3794 21.6204 19.2261 21.6112H19.2374ZM13.9949 8.32497C13.9531 8.02959 14.0304 7.72974 14.2098 7.49134C14.3891 7.25295 14.6557 7.09553 14.9511 7.05372C15.1383 7.0391 15.3264 7.0391 15.5136 7.05372C15.9981 7.06057 16.4792 7.13633 16.9424 7.27872C17.6042 7.48996 18.2058 7.85651 18.6971 8.34775C19.1883 8.83899 19.5549 9.44065 19.7661 10.1025C19.9112 10.5647 19.9834 11.0468 19.9799 11.5312C19.9984 11.7183 19.9984 11.9067 19.9799 12.0937C19.9396 12.3921 19.7824 12.6622 19.543 12.8447C19.3035 13.0272 19.0014 13.1071 18.703 13.0668C18.4046 13.0266 18.1345 12.8694 17.952 12.6299C17.7695 12.3905 17.6896 12.0883 17.7299 11.79C17.7299 11.79 17.7299 11.6775 17.7299 11.5312C17.7355 11.2754 17.6975 11.0205 17.6174 10.7775C17.5207 10.4588 17.3469 10.1689 17.1114 9.93339C16.876 9.69791 16.586 9.52414 16.2674 9.42747C16.0234 9.35026 15.7695 9.30858 15.5136 9.30372C15.4313 9.29645 15.3485 9.29645 15.2661 9.30372C15.1182 9.32422 14.9677 9.31507 14.8233 9.27679C14.679 9.23852 14.5437 9.17189 14.4254 9.08078C14.307 8.98968 14.208 8.87593 14.1341 8.74616C14.0602 8.6164 14.0129 8.47322 13.9949 8.32497ZM24.3111 10.44V10.5975C24.3111 10.8958 24.1926 11.182 23.9816 11.393C23.7706 11.6039 23.4845 11.7225 23.1861 11.7225C22.8877 11.7225 22.6016 11.6039 22.3906 11.393C22.1796 11.182 22.0611 10.8958 22.0611 10.5975V10.485C22.0572 9.94406 21.9777 9.40636 21.8249 8.88747C21.5799 8.00773 21.1146 7.20504 20.4728 6.55538C19.831 5.90573 19.0341 5.4306 18.1574 5.17497C17.6385 5.02218 17.1008 4.94266 16.5599 4.93872H16.4586C16.3109 4.94241 16.1639 4.91697 16.026 4.86385C15.888 4.81072 15.762 4.73096 15.6549 4.6291C15.5478 4.52725 15.4618 4.4053 15.4019 4.27022C15.3419 4.13515 15.3092 3.98958 15.3055 3.84185C15.3018 3.69411 15.3272 3.54709 15.3804 3.40919C15.4335 3.27128 15.5133 3.14519 15.6151 3.03811C15.717 2.93104 15.8389 2.84507 15.974 2.78512C16.1091 2.72517 16.2546 2.69241 16.4024 2.68872H16.5599C17.3222 2.69171 18.0802 2.8054 18.8099 3.02622C20.0381 3.38394 21.1562 4.04571 22.0608 4.95029C22.9654 5.85486 23.6271 6.973 23.9849 8.20122C24.2024 8.92753 24.3123 9.68179 24.3111 10.44V10.44Z" fill="#5BBDF4"/>
</svg>
